<?xml version="1.0" encoding="UTF-8"?>
<svg version="1.1" xmlns="http://www.w3.org/2000/svg" width="338" height="320">
<path d="M0 0 C1.29404877 0.64569202 2.58879556 1.28998664 3.88417053 1.93301392 C7.34950721 3.65822816 10.80469063 5.40288621 14.25803733 7.15195084 C17.89367377 8.98941297 21.53807188 10.80934443 25.18135071 12.6315918 C31.28455153 15.68732996 37.38160654 18.75503642 43.47460938 21.83105469 C50.50851845 25.38200241 57.54998096 28.91756842 64.59607285 32.44427395 C72.12813329 36.21424421 79.65557557 39.99335514 87.18116784 43.77621841 C89.34033491 44.8609523 91.50024465 45.94419554 93.66028404 47.02719116 C97.05243637 48.72867703 100.4413638 50.43642742 103.8279171 52.14902878 C105.06808057 52.77507194 106.30924912 53.39912877 107.55150223 54.02101517 C109.25076048 54.87215607 110.9459378 55.73142964 112.64091492 56.59106445 C113.58893825 57.0688887 114.53696157 57.54671295 115.51371288 58.03901672 C120.11347463 60.68098231 123.41153096 63.34044014 125.89575195 68.05078125 C126.3030957 68.80359375 126.71043945 69.55640625 127.13012695 70.33203125 C129.6180254 75.76713248 130.07809033 81.37696614 128.3918457 87.1171875 C124.74141494 96.72283081 120.07370326 100.53175907 111.03222656 105.03320312 C110.01552604 105.55108147 108.99882551 106.06895981 107.95131588 106.60253143 C105.78542559 107.70398652 103.61684234 108.80015969 101.44581223 109.89144897 C98.24722756 111.49975741 95.05638471 113.12239771 91.8677063 114.75024414 C79.03012744 121.29602345 66.15361725 127.76546541 53.27676487 134.23358917 C46.18063211 137.79833154 39.09004806 141.37366828 32.00614506 144.96265459 C26.95890192 147.51862055 21.90545265 150.0620377 16.84744114 152.5966258 C13.85288391 154.0976403 10.86221877 155.60532711 7.8763752 157.12367249 C-14.61853238 168.55341212 -32.90706807 175.46888906 -57.85424805 167.55078125 C-62.61220804 165.66321205 -67.14852053 163.43819873 -71.70849609 161.11743164 C-73.00255452 160.47337813 -74.29730098 159.83070555 -75.59266663 159.18928528 C-79.05805121 157.46826153 -82.51326606 155.72772691 -85.96653342 153.98254323 C-89.60242652 152.14871456 -93.24673012 150.33173643 -96.8898468 148.51231384 C-102.99318517 145.46105705 -109.09011502 142.39730289 -115.18310547 139.32543945 C-122.21579774 135.77996359 -129.25755802 132.25305759 -136.30456895 128.73613745 C-143.11276522 125.33804451 -149.91521662 121.92861116 -156.71485329 118.51342583 C-159.59779762 117.06556425 -162.48253749 115.6213761 -165.36878014 114.18010139 C-168.762701 112.48452537 -172.15141531 110.77895802 -175.53641319 109.0656414 C-176.77587306 108.4402278 -178.01702561 107.81815541 -179.25999832 107.19975281 C-187.08007931 103.30575531 -192.96357919 100.06703591 -197.60424805 92.48828125 C-198.0115918 91.83730469 -198.41893555 91.18632813 -198.83862305 90.515625 C-201.52517825 85.31817396 -201.73300982 79.54221381 -200.1003418 73.984375 C-196.44991103 64.37873169 -191.78219935 60.56980343 -182.74072266 56.06835938 C-181.21567187 55.29154186 -181.21567187 55.29154186 -179.65981197 54.49903107 C-177.49392169 53.39757598 -175.32533843 52.30140281 -173.15430832 51.21011353 C-169.95572366 49.60180509 -166.76488081 47.97916479 -163.57620239 46.35131836 C-150.73862353 39.80553905 -137.86211334 33.33609709 -124.98526096 26.86797333 C-117.8891282 23.30323096 -110.79854415 19.72789422 -103.71464115 16.13890791 C-98.66739802 13.58294195 -93.61394874 11.0395248 -88.55593723 8.5049367 C-85.56138001 7.0039222 -82.57071487 5.49623539 -79.58487129 3.97789001 C-51.06777808 -10.51174278 -29.37887599 -14.99165543 0 0 Z " fill="#1295E5" transform="translate(205.854248046875,15.44921875)"/>
<path d="M0 0 C1.29570703 0.65451535 1.29570703 0.65451535 2.61758995 1.32225323 C3.6181945 1.8226965 4.61879906 2.32313976 5.64972496 2.83874798 C7.2722216 3.66549526 7.2722216 3.66549526 8.92749596 4.50894451 C10.69599258 5.39767618 12.46448943 6.28640739 14.23299479 7.17512167 C16.12762387 8.12916508 18.02020601 9.08716085 19.91225624 10.04630756 C23.86858596 12.05161967 27.83106253 14.04456683 31.79453087 16.03572369 C40.92996544 20.62749551 50.05735288 25.23517528 59.18459129 29.84321117 C67.53710461 34.05994359 75.89132862 38.27318905 84.25215375 42.47342223 C88.18139308 44.44793461 92.10660938 46.43015507 96.02880979 48.41861022 C97.88954074 49.36038806 99.75212612 50.29837373 101.61557579 51.23475933 C103.87329086 52.36928868 106.12817852 53.50947274 108.37940025 54.6568327 C125.78202562 63.36055674 141.4823455 66.48456403 160.4211483 60.95108318 C164.46712693 59.36778724 168.32350027 57.49467818 172.19971275 55.53628826 C173.27208592 55.00794038 174.3444591 54.47959249 175.44932842 53.93523407 C178.78081171 52.288518 182.10175282 50.6220111 185.4211483 48.95108318 C187.45507381 47.93500044 189.48911809 46.91915542 191.52329063 45.90356731 C196.61404894 43.35401467 201.69392364 40.78345162 206.77099228 38.20676517 C212.37026044 35.36785033 217.97747609 32.54468622 223.58325768 29.71866131 C230.64749312 26.15644872 237.70938015 22.58978621 244.76270103 19.00601482 C250.5358123 16.07356701 256.31654622 13.15668307 262.1027832 10.25022602 C264.29174712 9.14711307 266.4778341 8.03827159 268.66091537 6.92356205 C271.69121024 5.37713523 274.73082681 3.85077437 277.77344322 2.32876873 C278.66637077 1.86713833 279.55929832 1.40550793 280.47928429 0.92988873 C284.25655359 -0.93701984 286.61870443 -2.08183308 290.88692284 -1.90675068 C296.59502871 0.02543988 300.94994506 4.55964866 303.8586483 9.76358318 C306.54476747 15.97523375 307.22185363 22.20118114 305.2336483 28.70108318 C300.16105277 41.47235246 288.57616015 45.52354685 276.87817955 51.36783123 C275.65140858 51.98421687 274.42479993 52.60092566 273.19833946 53.21792889 C269.89863492 54.87653377 266.59641462 56.53006557 263.29345894 58.18218493 C261.22413334 59.2175627 259.15538292 60.25408051 257.08682823 61.29099751 C249.85425228 64.91650671 242.61964648 68.53792692 235.38306236 72.15542889 C228.66174991 75.5154837 221.94495829 78.88445203 215.2302084 82.25759953 C209.44083403 85.16539564 203.64836478 88.06696024 197.85348225 90.96376354 C194.40293865 92.68878153 190.95365684 94.41620874 187.50748253 96.14994144 C184.26714862 97.77984728 181.02300092 99.40190309 177.77587318 101.01822948 C176.0313705 101.88895098 174.2907949 102.7675269 172.55039024 103.64641094 C157.11974948 111.30064122 141.57979296 114.55306031 124.68298531 109.71503162 C120.31498896 108.23971577 116.22711731 106.16504509 112.09351158 104.13833904 C111.0947909 103.65446445 110.09607021 103.17058985 109.06708527 102.67205238 C105.84723453 101.107492 102.63328541 99.53141526 99.4211483 97.95108318 C98.37491043 97.43645142 97.32867256 96.92181965 96.25073051 96.39159298 C88.43863906 92.54117443 80.64329032 88.65746065 72.8508358 84.76748943 C71.63033855 84.15861493 70.40981953 83.54978407 69.18927956 82.94099522 C63.4748056 80.09052573 57.76109136 77.23854223 52.04853809 74.38422543 C45.50624185 71.11533691 38.9613257 67.85177017 32.41420352 64.59255844 C27.30330264 62.04791571 22.19471664 59.49866638 17.08786404 56.94590896 C14.05625589 55.43062654 11.02372526 53.91726765 7.98874092 52.40875721 C4.62465478 50.73522469 1.2644205 49.05419319 -2.09496498 47.3712492 C-3.08813728 46.87927044 -4.08130959 46.38729168 -5.10457802 45.88040447 C-11.42901404 42.69896103 -16.91737166 39.91960378 -20.3288517 33.45108318 C-20.73619545 32.69827068 -21.1435392 31.94545818 -21.5632267 31.16983318 C-24.50362373 24.74619659 -24.35698377 18.46035784 -22.0163517 11.88858318 C-19.53805702 6.16469263 -15.86842231 2.18130054 -10.7351017 -1.29891682 C-7.00023715 -2.59800014 -3.57574062 -1.45438936 0 0 Z " fill="#DCDEE0" transform="translate(28.5788516998291,203.04891681671143)"/>
<path d="M0 0 C1.29570703 0.65451535 1.29570703 0.65451535 2.61758995 1.32225323 C3.6181945 1.8226965 4.61879906 2.32313976 5.64972496 2.83874798 C7.2722216 3.66549526 7.2722216 3.66549526 8.92749596 4.50894451 C10.69599258 5.39767618 12.46448943 6.28640739 14.23299479 7.17512167 C16.12762387 8.12916508 18.02020601 9.08716085 19.91225624 10.04630756 C23.86858596 12.05161967 27.83106253 14.04456683 31.79453087 16.03572369 C40.92996544 20.62749551 50.05735288 25.23517528 59.18459129 29.84321117 C67.53710461 34.05994359 75.89132862 38.27318905 84.25215375 42.47342223 C88.18139308 44.44793461 92.10660938 46.43015507 96.02880979 48.41861022 C97.88954074 49.36038806 99.75212612 50.29837373 101.61557579 51.23475933 C103.87329086 52.36928868 106.12817852 53.50947274 108.37940025 54.6568327 C125.78202562 63.36055674 141.4823455 66.48456403 160.4211483 60.95108318 C164.46712693 59.36778724 168.32350027 57.49467818 172.19971275 55.53628826 C173.27208592 55.00794038 174.3444591 54.47959249 175.44932842 53.93523407 C178.78081171 52.288518 182.10175282 50.6220111 185.4211483 48.95108318 C187.45507381 47.93500044 189.48911809 46.91915542 191.52329063 45.90356731 C196.61404894 43.35401467 201.69392364 40.78345162 206.77099228 38.20676517 C212.37026044 35.36785033 217.97747609 32.54468622 223.58325768 29.71866131 C230.64749312 26.15644872 237.70938015 22.58978621 244.76270103 19.00601482 C250.5358123 16.07356701 256.31654622 13.15668307 262.1027832 10.25022602 C264.29174712 9.14711307 266.4778341 8.03827159 268.66091537 6.92356205 C271.69121024 5.37713523 274.73082681 3.85077437 277.77344322 2.32876873 C278.66637077 1.86713833 279.55929832 1.40550793 280.47928429 0.92988873 C284.25655359 -0.93701984 286.61870443 -2.08183308 290.88692284 -1.90675068 C296.59502871 0.02543988 300.94994506 4.55964866 303.8586483 9.76358318 C306.54476747 15.97523375 307.22185363 22.20118114 305.2336483 28.70108318 C300.17401022 41.43972951 288.63082852 45.49518521 276.97339439 51.35196209 C275.75637337 51.96675625 274.53949941 52.58184162 273.32275963 53.19719219 C269.36618473 55.19628869 265.40551393 57.18719241 261.4445858 59.17764568 C260.06985244 59.86906797 258.6951438 60.56053943 257.32045937 61.25205898 C250.85975258 64.50140961 244.39715188 67.74695476 237.93217981 70.98781073 C230.51617371 74.70557931 223.10698258 78.43649971 215.70330179 82.17875063 C209.94722737 85.08710604 204.18494582 87.98291118 198.41801322 90.86967504 C194.98861387 92.58670629 191.56197187 94.30873834 188.14186287 96.04421139 C164.69646908 107.9321152 145.61147047 116.26375799 119.4211483 107.95108318 C114.66318831 106.06351399 110.12687581 103.83850066 105.56690025 101.51773357 C104.27284183 100.87368006 102.97809537 100.23100748 101.68272972 99.58958721 C98.21734514 97.86856347 94.76213029 96.12802885 91.30886292 94.38284516 C87.67296983 92.5490165 84.02866622 90.73203837 80.38554955 88.91261578 C74.28221117 85.86135899 68.18528132 82.79760483 62.09229088 79.72574139 C55.05959861 76.18026553 48.01783832 72.65335953 40.9708274 69.13643938 C34.16263112 65.73834644 27.36017972 62.32891309 20.56054306 58.91372776 C17.67759873 57.46586618 14.79285886 56.02167804 11.90661621 54.58040333 C8.51269535 52.8848273 5.12398104 51.17925995 1.73898315 49.46594334 C0.49952328 48.84052974 -0.74162926 48.21845734 -1.98460197 47.60005474 C-13.54020538 41.84595951 -13.54020538 41.84595951 -17.5788517 36.95108318 C-18.08932045 36.34006756 -18.5997892 35.72905193 -19.1257267 35.09952068 C-22.82992683 29.63943348 -24.01801489 24.53853104 -23.5788517 17.95108318 C-21.82346891 9.42657722 -17.91492802 3.5574568 -10.7351017 -1.29501057 C-7.00103334 -2.60058157 -3.57648102 -1.45469051 0 0 Z " fill="#DDDDE0" transform="translate(28.5788516998291,139.04891681671143)"/>
</svg>
